# xmcd
#
# Track frame offsets:
#	150
#	14260
#	28067
#	42765
#	55517
#	69407
#	85330
#	100632
#	110235
#	124222
#	141375
#	155147
#
# Disc length: 2280 seconds
#
# Revision: 1
# Processed by: cddbd v1.4PL0 Copyright (c) Steve Scherf et al.
# Submitted via: EasyCDDAExtractor 5.1.0
#
DISCID=a208e60c
DTITLE=compilation disc - soul dance of the greek
DYEAR=1900
DGENRE=Country
TTITLE0=dance my love
TTITLE1=my broken love
TTITLE2=carefree and happy
TTITLE3=the girl at the street corner
TTITLE4=the carefree dapper
TTITLE5=syrtaki dance no. 7
TTITLE6=kalamatiano
TTITLE7=dance of ikaria
TTITLE8=tsamiko
TTITLE9=syrto of crete
TTITLE10=dance of thrace
TTITLE11=dance of dodecanese isle
EXTD=
EXTT0=
EXTT1=
EXTT2=
EXTT3=
EXTT4=
EXTT5=
EXTT6=
EXTT7=
EXTT8=
EXTT9=
EXTT10=
EXTT11=
PLAYORDER=
